<?xml version="1.0" encoding="UTF-8" standalone="no"?>
<svg
   inkscape:export-ydpi="576"
   inkscape:export-xdpi="576"
   inkscape:export-filename="C:\Users\RainBoyz\Desktop\Oktober 2\10 - Passport.png"
   width="64pt"
   height="64pt"
   viewBox="0 0 22.577778 22.577778"
   version="1.1"
   id="svg831"
   inkscape:version="1.1.1 (1:1.1+202109281949+c3084ef5ed)"
   sodipodi:docname="21 - Bellboy.svg"
   xmlns:inkscape="http://www.inkscape.org/namespaces/inkscape"
   xmlns:sodipodi="http://sodipodi.sourceforge.net/DTD/sodipodi-0.dtd"
   xmlns="http://www.w3.org/2000/svg"
   xmlns:svg="http://www.w3.org/2000/svg"
   xmlns:rdf="http://www.w3.org/1999/02/22-rdf-syntax-ns#"
   xmlns:cc="http://creativecommons.org/ns#"
   xmlns:dc="http://purl.org/dc/elements/1.1/">
  <defs
     id="defs825">
    <pattern
       id="EMFhbasepattern"
       patternUnits="userSpaceOnUse"
       width="6"
       height="6"
       x="0"
       y="0" />
    <pattern
       id="EMFhbasepattern-9"
       patternUnits="userSpaceOnUse"
       width="6"
       height="6"
       x="0"
       y="0" />
    <pattern
       id="EMFhbasepattern-0"
       patternUnits="userSpaceOnUse"
       width="6"
       height="6"
       x="0"
       y="0" />
    <pattern
       id="EMFhbasepattern-7"
       patternUnits="userSpaceOnUse"
       width="6"
       height="6"
       x="0"
       y="0" />
    <pattern
       id="EMFhbasepattern-2"
       patternUnits="userSpaceOnUse"
       width="6"
       height="6"
       x="0"
       y="0" />
    <pattern
       id="EMFhbasepattern-98"
       patternUnits="userSpaceOnUse"
       width="6"
       height="6"
       x="0"
       y="0" />
    <pattern
       id="EMFhbasepattern-6"
       patternUnits="userSpaceOnUse"
       width="6"
       height="6"
       x="0"
       y="0" />
    <pattern
       id="EMFhbasepattern-01"
       patternUnits="userSpaceOnUse"
       width="6"
       height="6"
       x="0"
       y="0" />
    <pattern
       id="EMFhbasepattern-07"
       patternUnits="userSpaceOnUse"
       width="6"
       height="6"
       x="0"
       y="0" />
    <pattern
       id="EMFhbasepattern-8"
       patternUnits="userSpaceOnUse"
       width="6"
       height="6"
       x="0"
       y="0" />
    <pattern
       id="EMFhbasepattern-4"
       patternUnits="userSpaceOnUse"
       width="6"
       height="6"
       x="0"
       y="0" />
    <pattern
       id="EMFhbasepattern-40"
       patternUnits="userSpaceOnUse"
       width="6"
       height="6"
       x="0"
       y="0" />
    <pattern
       id="EMFhbasepattern-08"
       patternUnits="userSpaceOnUse"
       width="6"
       height="6"
       x="0"
       y="0" />
    <pattern
       id="EMFhbasepattern-04"
       patternUnits="userSpaceOnUse"
       width="6"
       height="6"
       x="0"
       y="0" />
    <pattern
       id="EMFhbasepattern-014"
       patternUnits="userSpaceOnUse"
       width="6"
       height="6"
       x="0"
       y="0" />
    <pattern
       id="EMFhbasepattern-27"
       patternUnits="userSpaceOnUse"
       width="6"
       height="6"
       x="0"
       y="0" />
    <pattern
       id="EMFhbasepattern-09"
       patternUnits="userSpaceOnUse"
       width="6"
       height="6"
       x="0"
       y="0" />
    <pattern
       id="EMFhbasepattern-5"
       patternUnits="userSpaceOnUse"
       width="6"
       height="6"
       x="0"
       y="0" />
    <pattern
       id="EMFhbasepattern-018"
       patternUnits="userSpaceOnUse"
       width="6"
       height="6"
       x="0"
       y="0" />
  </defs>
  <sodipodi:namedview
     id="base"
     pagecolor="#ffffff"
     bordercolor="#666666"
     borderopacity="1.0"
     inkscape:pageopacity="0.0"
     inkscape:pageshadow="2"
     inkscape:zoom="3.0761719"
     inkscape:cx="31.370159"
     inkscape:cy="45.83619"
     inkscape:document-units="pt"
     inkscape:current-layer="layer1"
     showgrid="false"
     units="pt"
     inkscape:window-width="1366"
     inkscape:window-height="705"
     inkscape:window-x="0"
     inkscape:window-y="31"
     inkscape:window-maximized="1"
     inkscape:pagecheckerboard="true"
     inkscape:showpageshadow="false"
     inkscape:object-paths="true"
     inkscape:snap-intersection-paths="true"
     inkscape:snap-smooth-nodes="true"
     inkscape:snap-midpoints="true"
     showguides="false"
     inkscape:snap-bbox="true"
     inkscape:bbox-nodes="true"
     inkscape:snap-nodes="false"
     inkscape:snap-global="true"
     inkscape:document-rotation="0">
    <inkscape:grid
       type="xygrid"
       id="grid1378" />
    <sodipodi:guide
       position="0.97013831,21.607643"
       orientation="78.000048,0"
       id="guide1380"
       inkscape:locked="false" />
    <sodipodi:guide
       position="0.97013831,0.97013129"
       orientation="0,78.000005"
       id="guide1382"
       inkscape:locked="false" />
    <sodipodi:guide
       position="21.607639,0.97013129"
       orientation="-78.000048,0"
       id="guide1384"
       inkscape:locked="false" />
    <sodipodi:guide
       position="21.607639,21.607643"
       orientation="0,-78.000005"
       id="guide1386"
       inkscape:locked="false" />
  </sodipodi:namedview>
  <metadata
     id="metadata828">
    <rdf:RDF>
      <cc:Work
         rdf:about="">
        <dc:format>image/svg+xml</dc:format>
        <dc:type
           rdf:resource="http://purl.org/dc/dcmitype/StillImage" />
      </cc:Work>
    </rdf:RDF>
  </metadata>
  <g
     inkscape:label="Icon"
     inkscape:groupmode="layer"
     id="layer1"
     transform="translate(0,-274.42223)">
    <g
       id="g2329"
       style="display:inline;stroke-width:0.794878"
       transform="matrix(1.258055,0,0,1.258055,-114.48586,-38.905153)">
      <g
         id="g176280"
         style="display:inline;stroke-width:0.794878">
        <path
           style="color:#000000;fill:#dc1c4b;stroke-width:0.794878;stroke-linecap:round;stroke-linejoin:round;stroke-miterlimit:1.5;-inkscape-stroke:none"
           d="m 98.916016,249.82812 c -1.021477,0 -1.851563,0.83009 -1.851563,1.85157 v 1.58789 a 0.26460996,0.26460996 0 0 0 0.265625,0.26562 h 5.291012 a 0.26460996,0.26460996 0 0 0 0.26368,-0.26562 v -1.58789 c 0,-1.02148 -0.8301,-1.85157 -1.85157,-1.85157 z"
           id="path129652" />
        <path
           style="color:#000000;fill:#ef937e;stroke-width:0.794878;stroke-linecap:round;stroke-linejoin:round;stroke-miterlimit:1.5;-inkscape-stroke:none"
           d="m 98.652344,257.23633 a 0.26460996,0.26460996 0 0 0 -0.263672,0.26562 v 1.85157 a 0.26460996,0.26460996 0 0 0 0.15625,0.24218 l 1.322265,0.58789 a 0.26460996,0.26460996 0 0 0 0.214843,0 l 1.32422,-0.58789 a 0.26460996,0.26460996 0 0 0 0.15625,-0.24218 v -1.85157 a 0.26460996,0.26460996 0 0 0 -0.26367,-0.26562 z"
           id="path129658" />
        <path
           style="color:#000000;fill:#f8c09d;stroke-width:0.794878;stroke-linecap:round;stroke-linejoin:round;stroke-miterlimit:1.5;-inkscape-stroke:none"
           d="m 97.330078,252.83594 a 0.26460996,0.26460996 0 0 0 -0.265625,0.26562 v 0.96094 c -0.581365,0 -1.058594,0.47527 -1.058594,1.05664 0,0.58137 0.477229,1.05859 1.058594,1.05859 0.04853,-2e-5 0.09471,-0.0188 0.142578,-0.0254 0.251149,1.20039 1.229805,2.14258 2.503906,2.14258 h 0.529293 c 1.27415,0 2.25281,-0.94212 2.50391,-2.14258 0.0474,0.007 0.0926,0.0253 0.14063,0.0254 0.58136,0 1.05859,-0.47722 1.05859,-1.05859 0,-0.58137 -0.47723,-1.05664 -1.05859,-1.05664 v -0.96094 a 0.26460996,0.26460996 0 0 0 -0.26368,-0.26562 z"
           id="path129664" />
        <path
           id="path139008"
           style="color:#000000;fill:#ef937e;fill-opacity:1;stroke-width:3.00426;stroke-linecap:round;stroke-linejoin:round;stroke-miterlimit:1.5;-inkscape-stroke:none"
           d="m 366.85742,-101.91602 v 3.632817 c -0.51824,0 -1.01475,0.09971 -1.4707,0.28125 0.1021,0.115477 0.21703,0.219509 0.3418,0.308594 0.52719,0.376441 1.19223,0.608908 2.13281,0.804687 1.88115,0.391635 4.91268,0.605469 9.99609,0.605469 1.63052,0 3.04747,-0.02228 4.28248,-0.06543 2.55204,-0.08917 4.47085,1.711934 4.29907,4.260999 l -0.11475,1.702868 c -0.94904,4.537172 -4.6472,8.097657 -9.46289,8.097657 h 2 c 4.81565,0 8.51385,-3.560485 9.46289,-8.097657 l 0.53125,-7.898437 v -3.632817 z"
           transform="matrix(0.26458334,0,0,0.26458334,0,280.06666)"
           sodipodi:nodetypes="cccscscccscccc" />
        <path
           id="path154087"
           style="color:#000000;fill:#a31d42;fill-opacity:1;stroke-width:0.794878;stroke-linecap:round;stroke-linejoin:round;stroke-miterlimit:1.5;-inkscape-stroke:none"
           d="m 98.915929,249.82819 c -0.645734,0 -1.214744,0.33196 -1.546159,0.83406 0.292063,-0.19265 0.641459,-0.30489 1.016992,-0.30489 h 2.117178 c 1.02148,0 1.85157,0.83009 1.85157,1.85157 v 1.32447 h 0.26562 a 0.26460996,0.26460996 0 0 0 0.26355,-0.26562 v -1.58802 c 0,-1.02148 -0.8301,-1.85157 -1.85157,-1.85157 z" />
        <path
           style="color:#000000;fill:#febe40;stroke-width:0.794878;stroke-linecap:round;stroke-linejoin:round;stroke-miterlimit:1.5;-inkscape-stroke:none"
           d="m 97.330078,252.47461 c -0.435161,0 -0.794922,0.35781 -0.794922,0.79297 0,0.14859 0.09098,0.32227 0.230469,0.42187 0.139487,0.0996 0.315593,0.16109 0.564453,0.21289 0.497721,0.10362 1.299545,0.16016 2.644531,0.16016 1.344981,0 2.146811,-0.0565 2.644531,-0.16016 0.24886,-0.0518 0.42497,-0.11328 0.56445,-0.21289 0.13949,-0.0996 0.23047,-0.27328 0.23047,-0.42187 0,-0.43516 -0.3578,-0.79297 -0.79297,-0.79297 z"
           id="path129670" />
        <path
           style="color:#000000;fill:#dc1c4b;stroke-width:0.794878;stroke-linecap:round;stroke-linejoin:round;stroke-miterlimit:1.5;-inkscape-stroke:none"
           d="m 98.568359,258.57227 -0.769531,0.25781 c -1.778966,0.41053 -2.910701,1.33689 -3.566406,2.59179 -0.655705,1.25491 -0.85189,2.81609 -0.871094,4.54297 a 0.26460996,0.26460996 0 0 0 0.263672,0.26758 h 12.70117 a 0.26460996,0.26460996 0 0 0 0.26367,-0.26758 c -0.0192,-1.72688 -0.21539,-3.28806 -0.87109,-4.54297 -0.6557,-1.2549 -1.78744,-2.18126 -3.56641,-2.59179 l -0.77148,-0.25781 a 0.26460996,0.26460996 0 0 0 -0.24609,0.043 l -1.160161,0.90235 -1.160156,-0.90235 a 0.26460996,0.26460996 0 0 0 -0.246094,-0.043 z"
           id="path129682" />
        <path
           id="path157788"
           style="color:#000000;fill:#a31d42;fill-opacity:1;stroke-width:0.794878;stroke-linecap:round;stroke-linejoin:round;stroke-miterlimit:1.5;-inkscape-stroke:none"
           d="m 101.29563,258.55893 c -0.0583,5.5e-4 -0.11481,0.0204 -0.16071,0.0563 l -0.68162,0.5302 0.64079,0.21394 c 1.77897,0.41053 2.91049,1.33667 3.56619,2.59157 0.62236,1.1911 0.83061,2.65865 0.86662,4.28139 h 0.79943 c 0.14693,-5.8e-4 0.26526,-0.12076 0.26355,-0.26768 -0.0192,-1.72688 -0.21557,-3.28797 -0.87126,-4.54288 -0.65571,-1.2549 -1.78723,-2.18104 -3.5662,-2.59157 l -0.77152,-0.25787 c -0.0275,-0.009 -0.0563,-0.0136 -0.0853,-0.0134 z"
           sodipodi:nodetypes="ccccscccsccc" />
        <path
           id="path142780"
           style="color:#000000;fill:#ec7523;fill-opacity:1;stroke-width:0.794878;stroke-linecap:round;stroke-linejoin:round;stroke-miterlimit:1.5;-inkscape-stroke:none"
           d="m 97.329979,252.47454 c -0.383114,0 -0.707614,0.2775 -0.779798,0.64079 0.07904,-0.0266 0.163203,-0.0408 0.250632,-0.0408 h 5.291147 c 0.42384,0 0.77372,0.33941 0.79168,0.75913 0.11833,-0.0385 0.2158,-0.0842 0.29973,-0.14418 0.13949,-0.0996 0.23048,-0.27309 0.23048,-0.42168 0,-0.43516 -0.35755,-0.79324 -0.79272,-0.79324 z" />
      </g>
      <path
         id="path6346"
         style="color:#000000;fill:#000000;stroke-width:3.00426;stroke-linecap:round;stroke-linejoin:round;stroke-miterlimit:1.5;-inkscape-stroke:none"
         d="m 373.85547,-114.28711 c -3.8607,0 -6.99805,3.13734 -6.99805,6.99805 v 3.17968 c -1.15923,0.41622 -2,1.52878 -2,2.82227 0,0.5616 0.34389,1.21731 0.8711,1.593751 0.31629,0.225845 0.68349,0.39957 1.1289,0.544921 v 0.865235 c -2.19728,0 -4,1.796837 -4,3.994141 0,2.197303 1.80272,4 4,4 0.0669,-3.3e-5 0.13432,-0.0026 0.20117,-0.0059 v 0.002 c 0.57486,2.853872 2.36516,5.2635 4.80469,6.671875 v 2.609375 l -2.23047,0.748047 c -6.72365,1.55161 -11.00026,5.051993 -13.47851,9.794922 -2.35225,4.501815 -3.13932,10.048449 -3.27539,16.181641 h -1.02149 c -0.55228,0.0022 -0.99825,0.451621 -0.99609,1.003906 0.002,0.549236 0.44685,0.99395 0.99609,0.996094 h 51.99805 c 0.55229,0.0022 1.00176,-0.443806 1.00391,-0.996094 0.002,-0.555341 -0.44857,-1.006081 -1.00391,-1.003906 h -1.01367 c -0.13609,-6.133048 -0.92321,-11.679915 -3.27539,-16.181641 -2.47824,-4.742929 -6.75485,-8.243312 -13.47852,-9.794922 l -2.23047,-0.746094 v -2.609375 c 2.43972,-1.408039 4.22707,-3.817854 4.80078,-6.673828 0.0659,0.0032 0.13115,0.0038 0.19727,0.0039 2.19726,0 4.00195,-1.802697 4.00195,-4 0,-2.197304 -1.80469,-3.994141 -4.00195,-3.994141 v -0.865235 c 0.44558,-0.145367 0.81255,-0.318994 1.12891,-0.544921 0.5272,-0.376441 0.87109,-1.032151 0.87109,-1.593751 0,-1.29576 -0.83955,-2.40973 -2,-2.82422 v -3.17773 c 0,-3.86071 -3.13737,-6.99805 -6.99805,-6.99805 z m 0,2 h 8.00195 c 2.78729,0 5.00586,2.21072 5.00586,4.99805 v 3.0039 h -18.00586 v -3.0039 c 0,-2.78733 2.21075,-4.99805 4.99805,-4.99805 z m 2,2.99805 c -0.55228,0.002 -0.99825,0.45162 -0.99609,1.0039 0.002,0.54924 0.44685,0.99396 0.99609,0.9961 h 4.00195 c 0.55229,0.002 1.00176,-0.44381 1.00391,-0.9961 0.002,-0.55534 -0.44857,-1.00608 -1.00391,-1.0039 z m -7.99414,7.0039 h 19.99805 c 0.55438,0 0.94241,0.4228 0.96679,0.96875 -0.14324,0.10243 -0.58493,0.29915 -1.38086,0.46485 -1.59186,0.33146 -4.5633,0.56836 -9.58789,0.56836 -5.02458,0 -7.99018,-0.23694 -9.58203,-0.56836 -0.79592,-0.16555 -1.23743,-0.36265 -1.38086,-0.46485 0.0272,-0.54289 0.41449,-0.96875 0.9668,-0.96875 z m 19.00195,3.568363 v 1.607422 c 0.004,0.685153 0.68103,1.162646 1.32813,0.9375 0.21127,-0.07521 0.43887,-0.110194 0.66406,-0.111328 1.11643,0 2,0.877706 2,1.994141 0,1.114393 -0.87866,1.996749 -1.99219,2 -0.2366,-2.65e-4 -0.47158,-0.03901 -0.69336,-0.119141 -0.51776,-0.191622 -1.09338,0.07419 -1.28515,0.591797 -0.061,0.227721 -0.0742,0.45703 -0.11123,0.685545 -0.55688,3.883351 -3.85683,6.843787 -7.91211,6.84375 h -2.00195 c -4.09145,0 -7.42348,-3.01206 -7.93555,-6.947266 -0.0159,-0.159415 -0.0314,-0.395016 -0.0878,-0.582044 -0.19178,-0.517607 -0.7674,-0.783192 -1.28516,-0.591797 -0.22171,0.08164 -0.45758,0.119141 -0.69336,0.119141 -1.11642,0 -2,-0.885519 -2,-2.001954 0,-1.116434 0.88358,-1.992187 2,-1.992187 0.22825,2.27e-4 0.45066,0.0346 0.66406,0.111328 0.65242,0.232819 1.33797,-0.252525 1.33594,-0.945313 v -1.597656 c 1.90859,0.280647 4.72777,0.431641 9,0.431641 3.004,-0.10471 6.1211,-0.02332 9.00567,-0.433579 z m -13.00781,15.970703 c 0.9484,0.297815 1.9571,0.458985 3.00391,0.458985 h 2.00195 c 1.0442,0 2.05003,-0.160882 2.99609,-0.457032 v 1.966797 l -3.99804,3.111328 -4.00391,-3.113281 z m -1.18555,3.580078 8.19141,6.373047 v 18.50586 h -14.00391 v -8.585938 l 1.70508,-1.705078 c 0.3926,-0.390879 0.3926,-1.025137 0,-1.416016 -0.39003,-0.387666 -1.02012,-0.387666 -1.41016,0 l -0.29492,0.294922 v -0.583984 c 0.002,-0.552491 -0.4436,-1.002017 -0.99609,-1.003906 -0.55537,-0.0022 -1.00611,0.448542 -1.00391,1.003906 v 11.996094 h -9.97851 c 0.13838,-5.965051 0.92989,-11.200434 3.04687,-15.251953 2.23585,-4.278993 5.88187,-7.328954 12.1582,-8.777344 0.85863,-0.271281 1.72352,-0.561748 2.58594,-0.84961 z m 10.38086,0 c 0.8625,0.287576 1.73185,0.578196 2.58594,0.851563 6.27636,1.44839 9.92235,4.498352 12.1582,8.777344 2.1168,4.051145 2.90838,9.285634 3.04688,15.25 h -9.98633 v -11.996094 c 0.002,-0.552491 -0.4436,-1.002017 -0.99609,-1.003906 -0.55537,-0.0022 -1.0061,0.448542 -1.00391,1.003906 v 0.576172 l -0.28711,-0.28711 c -0.39088,-0.392617 -1.02709,-0.392617 -1.41797,0 -0.39262,0.390879 -0.39262,1.025137 0,1.416016 l 1.70508,1.705078 v 8.585938 h -5.99414 v -19.001953 c -0.001,-0.309272 -0.14542,-0.600591 -0.39063,-0.789063 l -2.98047,-2.318359 z m -5.19531,5.882813 c -0.54924,0.0021 -0.99395,0.446858 -0.99609,0.996094 -0.002,0.552285 0.44381,1.00175 0.99609,1.003906 0.55534,0.0022 1.00608,-0.448565 1.00391,-1.003906 -0.002,-0.552288 -0.45162,-0.998257 -1.00391,-0.996094 z m 0,4 c -0.54924,0.0021 -0.99395,0.446858 -0.99609,0.996094 -0.002,0.552285 0.44381,1.00175 0.99609,1.003906 0.55534,0.0022 1.00608,-0.448565 1.00391,-1.003906 -0.002,-0.552288 -0.45162,-0.998257 -1.00391,-0.996094 z m 0,4 c -0.55,0.0022 -0.99502,0.448048 -0.99609,0.998047 -0.002,0.552285 0.44381,1.00175 0.99609,1.003906 0.55534,0.0022 1.00608,-0.448565 1.00391,-1.003906 -10e-4,-0.553052 -0.45086,-1.00021 -1.00391,-0.998047 z m 0,4 c -0.54924,0.0021 -0.99395,0.446858 -0.99609,0.996094 -0.002,0.552285 0.44381,1.00175 0.99609,1.003906 0.55534,0.0022 1.00608,-0.448565 1.00391,-1.003906 -0.002,-0.552288 -0.45162,-0.998257 -1.00391,-0.996094 z m 0,3.996094 c -0.54924,0.0021 -0.99395,0.446857 -0.99609,0.996093 -0.002,0.552285 0.4438,1.001751 0.99609,1.003907 0.55534,0.0022 1.00608,-0.448565 1.00391,-1.003907 -0.002,-0.552288 -0.45162,-0.998256 -1.00391,-0.996093 z"
         transform="matrix(0.26458334,0,0,0.26458334,0,280.06666)"
         sodipodi:nodetypes="sscssccsscccccsccsccsccscccccsccsscssssssccsscsccsccsscssccsccccsccccsscccsscccccccsscccccccccccccccccccsccccsccccccccccccccccssssssssssscscsssssssssss" />
    </g>
  </g>
</svg>
